<?xml version="1.0" encoding="utf-8"?>
<!-- Generator: Adobe Illustrator 19.0.0, SVG Export Plug-In . SVG Version: 6.00 Build 0)  -->
<svg version="1.1" id="Capa_1" xmlns="http://www.w3.org/2000/svg" xmlns:xlink="http://www.w3.org/1999/xlink" x="0px" y="0px"
	 viewBox="0 0 513 276" style="enable-background:new 0 0 513 276;" xml:space="preserve">
<style type="text/css">
	g {
		color: #ffffff;
		fill: #ffffff;
	}
</style>
<g id="XMLID_59_">
	<g id="XMLID_97_">
		<path id="XMLID_104_" d="M167.748276,89.50724c-8.486847,2.545181-19.901184,13.817375-22.103012,40.256645
			c-2.135849,29.545975,21.163895,26.158585,24.77919-2.046951c2.660309-20.758957-7.714218-24.509026-11.527435-19.771767
			c2.836395-10.007462,16.20752-18.166664,18.663635,3.015129c2.449997,20.910385-5.923767,50.58876-24.257706,53.701752
			c-18.305527,3.106552-19.57135-38.105713-7.905853-60.826485c3.772369-7.348717,5.716599-10.086311,9.379013-14.000198
			c-11.056213,4.219864-24.091217,18.330482-28.692764,43.312614c-7.170914,38.919342,12.397446,51.800095,20.03627,53.25708
			c-8.584229,2.633606-11.687637,9.032837-12.592209,19.730927l0.910858-0.924042
			c4.325104-5.749588,10.632278-6.030273,20.978546-5.724457c10.330704,0.299698,16.99585-7.509399,17.790466-18.860275
			c-5.000351,6.112259-11.948227,5.156631-16.59375,4.57312c18.293106-5.513031,26.490952-22.553665,31.171036-42.360291
			C196.324966,98.464371,176.753464,86.917931,167.748276,89.50724 M160.01207,112.130318
			c1.821869-0.76635,3.373413,0.971489,3.483353,3.879341c0.128799,2.873299-1.243835,5.840996-3.030991,6.604355
			c-1.809296,0.760071-3.351425-0.958916-3.492783-3.832054C156.858551,115.886673,158.212357,112.940964,160.01207,112.130318"/>
		<path id="XMLID_103_" d="M244.325211,95.983902c3.879181-0.810638,6.841064-4.879089,6.61174-9.07383
			c-0.229172-4.191589-3.593155-6.926041-7.453491-6.102829c-3.891586,0.823051-6.881897,4.891655-6.646286,9.086395
			C237.082199,94.085228,240.439896,96.813393,244.325211,95.983902"/>
		<path id="XMLID_98_" d="M388.435242,111.439362c-0.4021-7.049026-4.353394-16.807213-6.611603-21.859863
			c0.150787-0.274406,0.26059-0.469963,0.326569-0.589806c2.550507-4.175728,5.672607-10.300705,4.887268-14.217896
			c-1.303375-6.462372-7.654388-4.68354-7.654388-4.68354s-8.923676,1.353004-10.069977,12.527344
			c0,0-1.16861,8.52832,3.674835,18.765884c-2.038452,3.532372-4.306244,7.402283-6.621155,11.212196
			c-0.998657-0.280685-2.091736-0.331268-3.232056-0.085136c-3.806946,0.801064-6.853638,4.453278-7.315277,8.502876
			l-0.012543-0.028427c0,0-0.00943,0.104134-0.012726,0.287125c-0.037537,0.400528-0.053253,0.804199-0.037537,1.207878
			c0.015686,0.293404,0.040833,0.580376,0.081665,0.861061c0.081512,1.21431,0.279572,2.775444,0.725494,4.368141
			c-2.585052,3.589218-4.802582,6.191101-6.275757,7.04274c-6.366547,3.608078-8.73172-2.608322-9.023865-5.181915
			c-0.276459-2.630318,0.524597-9.486931,0.524597-9.486931c-0.003296-0.305977,0.398804-3.093987,0.398804-3.093987
			c14.077972-1.368874,18.431335-10.423691,20.714844-16.61496c2.349304-6.36451,3.282288-27.054199-11.351532-24.253624
			c-14.618103,2.807014-20.397369,22.919624-22.948059,38.225555c-0.901428,5.131348-4.35321,11.398323-4.35321,11.398323
			c-1.759033,2.974136-3.291901,1.189026-2.789276-2.422348c0.279602-1.999512,4.81189-32.333832,4.81189-32.333832
			c0.826172-9.868607-6.56778-11.997543-14.787598-0.731796c-2.239532,2.844872-4.852875,7.723969-4.852875,7.723969
			c0.19162-1.072327-0.012573-5.18821-0.012573-5.18821c-0.587433-8.603874-6.357269-7.402283-12.419434-0.450951
			c-3.517914,4.03389-6.357117,9.187386-6.357117,9.187386l1.667755-10.81794l-11.970367,2.557739l-3.690521,25.193542
			c-0.36441,1.028191-4.862305,13.441971-5.883087,16.059708c-1.963074,5.046219-5.650635,7.925812-4.444489-0.343826
			c0,0,7.924683-56.91243,8.446014-59.864426l-11.989075,2.545181c0,0-4.733475,34.85717-5.496689,38.597656
			c-0.769485,3.759491-3.43309,16.539093-8.48056,26.114456c-1.872131,3.232819-4.108505,3.737335-3.175507-1.576996
			c0.003143-0.018845,4.83699-34.390358,5.65062-40.512039l-12.249802,2.62088c0,0-2.264648,19.20742-3.84462,24.468033
			c-1.576828,5.248215-4.554428,14.533295-6.545776,18.532486c-1.834274,3.702621-5.022491,5.793716-3.728394-1.450867
			c1.353806-7.58197,5.13559-39.644691,5.565811-39.720398l-12.26236,2.617737l-4.051804,28.798477
			c-2.182968,9.71405-5.42131,15.176666-5.42131,15.176666c-1.372635,2.214066-3.674988,3.453522-2.971298-0.561371
			c0.709793-4.037033,5.6035-40.149368,6.05571-42.044899l-12.256088,2.617744l-7.425217,52.137329
			c-1.903381,12.763885,5.427582,11.761002,9.809235,5.245071c2.80481-4.169449,8.414597-14.470154,10.126526-19.753082
			l-1.432343,13.877365c-0.722366,6.717773,5.157425,9.221954,9.768402,2.406326
			c3.960861-5.844131,8.562408-15.100952,13.669571-27.817566l-2.855087,21.203781
			c-0.593719,6.109116,4.277985,9.499649,9.705566,2.110092c5.085175-6.88504,11.659225-21.257507,13.528214-27.177338
			l-2.537964,20.815811c-0.719223,6.538071,4.959671,8.912994,10.387268,1.23317
			c4.981506-7.030029,9.721283-17.337021,13.009857-27.218346l-4.032959,27.565315l12.391022-2.646179
			c0.329834-1.132172,6.256927-43.088783,6.256927-43.088783s0.873138-4.516418,2.801819-7.443275
			c2.443542-3.750069,5.144714-3.92662,4.444489,0.094559l-7.130096,49.087631l12.265533-2.617737l5.842224-39.698418
			c0.957825-5.44046,1.582977-6.897606,3.662292-10.770508c2.252075-4.194733,4.849701-4.245308,3.863312,1.545425
			c0,0-4.133484,27.58416-5.952057,39.013893c-1.243835,7.837524,4.026672,12.618759,10.421661,4.201019
			c5.46228-7.118454,11.448883-22.998322,11.448883-22.998322s-1.309814,14.921112,6.89447,19.954758
			c3.137817,1.923965,9.859497,1.182739,15.280792-2.983566v-0.012558c1.702515-1.387726,3.863495-3.939346,6.253632-7.172012
			c1.526581,3.563934,4.633118,6.645187,10.940002,5.557159C381.578613,132.876556,389.038391,121.891335,388.435242,111.439362
			 M346.475006,85.501465c0.135071-0.961906,0.323578-1.91124,0.637695-2.860573
			c0.332855-1.002899,0.813477-1.977524,1.542145-2.67131c0.317261-0.296547,0.675385-0.545662,1.089905-0.719223
			c0.56546-0.236397,1.133881-0.416237,1.689911-0.359535c1.187317,0.126282,1.81543,1.264732,1.937958,2.485329
			c0.040833,0.384827,0.047119,0.788498,0.021973,1.18589c-0.188324,2.904709-3.615295,26.004028-3.615295,26.004028
			c-0.248169,2.318207-1.626923,5.244911-4.20871,5.784286c-1.950653,0.400536-3.11911,0.526665-3.081421,0.526665
			C343.733032,105.10627,346.475006,85.501465,346.475006,85.501465 M380.124298,73.153961c0,0,3.310577-1.7127,4.312531,2.17292
			c0.857605,3.330536-1.083618,7.600975-3.323151,11.657021l-0.012543-0.025291c0,0-0.091095,0.167122-0.260742,0.476242
			c-0.166504-0.350113-0.307709-0.640221-0.405243-0.832634C380.43515,86.602219,375.029694,75.941971,380.124298,73.153961
			 M367.651611,132.73143c-5.220398,1.031326-7.821014-1.977524-9.080719-4.636261
			c1.435455,1.053467,3.288574,1.494995,5.286194,1.069168c4.246735-0.886185,7.532196-5.35218,7.337433-9.950592
			c-0.113098-2.630463-1.350494-4.734116-3.175507-5.891571c2.091858-3.406242,4.120911-6.809334,5.958466-9.9506
			c4.752197,9.518501,4.463348,11.022919,4.758484,14.536438C379.188171,123.345337,375.682953,131.138718,367.651611,132.73143"/>
	</g>
</g>
</svg>
